<?xml version="1.0" encoding="UTF-8"?>
<!DOCTYPE svg PUBLIC "-//W3C//DTD SVG 1.1//EN" "http://www.w3.org/Graphics/SVG/1.1/DTD/svg11.dtd">
<svg xmlns="http://www.w3.org/2000/svg" version="1.1" width="1200px" height="1133px" style="shape-rendering:geometricPrecision; text-rendering:geometricPrecision; image-rendering:optimizeQuality; fill-rule:evenodd; clip-rule:evenodd" xmlns:xlink="http://www.w3.org/1999/xlink">
<g><path style="opacity:0.999" fill="#1d6d41" d="M 676.5,-0.5 C 678.5,-0.5 680.5,-0.5 682.5,-0.5C 682.5,36.1667 682.5,72.8333 682.5,109.5C 682.5,123.167 682.5,136.833 682.5,150.5C 681.167,177.167 681.167,203.833 682.5,230.5C 682.5,264.833 682.5,299.167 682.5,333.5C 682.5,345.833 682.5,358.167 682.5,370.5C 682.5,370.833 682.5,371.167 682.5,371.5C 682.5,405.5 682.5,439.5 682.5,473.5C 682.5,473.833 682.5,474.167 682.5,474.5C 682.5,487.833 682.5,501.167 682.5,514.5C 682.5,548.833 682.5,583.167 682.5,617.5C 682.5,630.833 682.5,644.167 682.5,657.5C 682.5,657.833 682.5,658.167 682.5,658.5C 682.5,692.833 682.5,727.167 682.5,761.5C 681.167,774.833 681.167,788.167 682.5,801.5C 682.5,835.833 682.5,870.167 682.5,904.5C 682.5,929.833 682.5,955.167 682.5,980.5C 682.5,994.167 682.5,1007.83 682.5,1021.5C 682.5,1058.5 682.5,1095.5 682.5,1132.5C 680.5,1132.5 678.5,1132.5 676.5,1132.5C 574.186,1115.06 471.852,1097.73 369.5,1080.5C 369.167,970.332 369.501,860.332 370.5,750.5C 372.819,755.807 375.152,761.141 377.5,766.5C 408.097,769.514 438.764,771.514 469.5,772.5C 435.257,703.513 400.59,634.68 365.5,566C 397.643,498.548 430.976,431.714 465.5,365.5C 464,365.167 462.5,364.833 461,364.5C 433.853,366.604 406.687,368.271 379.5,369.5C 376.893,376.987 373.893,384.321 370.5,391.5C 369.168,277.931 369.168,164.264 370.5,50.5C 472.698,33.9114 574.698,16.9114 676.5,-0.5 Z"/></g>
<g><path style="opacity:0.999" fill="#1f7144" d="M 370.5,50.5 C 369.168,164.264 369.168,277.931 370.5,391.5C 354.957,428.257 339.123,464.924 323,501.5C 321.512,505.787 320.178,510.12 319,514.5C 302.284,468.349 284.784,422.515 266.5,377C 264.866,376.506 263.199,376.34 261.5,376.5C 259.5,376.5 257.5,376.5 255.5,376.5C 255.5,274.167 255.5,171.833 255.5,69.5C 293.896,63.4895 332.23,57.1562 370.5,50.5 Z"/></g>
<g><path style="opacity:0.999" fill="#207446" d="M 255.5,69.5 C 255.5,171.833 255.5,274.167 255.5,376.5C 257.5,376.5 259.5,376.5 261.5,376.5C 236.907,377.693 212.24,379.693 187.5,382.5C 214.833,444.5 242.167,506.5 269.5,568.5C 239.233,630.867 208.567,693.034 177.5,755C 203.496,757.009 229.496,758.843 255.5,760.5C 255.5,860.833 255.5,961.167 255.5,1061.5C 179.783,1049.49 104.116,1037.16 28.5,1024.5C 27.5008,718.903 27.1675,413.236 27.5,107.5C 103.571,95.0437 179.571,82.377 255.5,69.5 Z"/></g>
<g><path style="opacity:0.999" fill="#217748" d="M 27.5,107.5 C 27.1675,413.236 27.5008,718.903 28.5,1024.5C 18.8593,1022.73 9.19265,1021.06 -0.5,1019.5C -0.5,717.167 -0.5,414.833 -0.5,112.5C 8.77181,110.621 18.1051,108.954 27.5,107.5 Z"/></g>
<g><path style="opacity:0.999" fill="#207144" d="M 682.5,109.5 C 840.5,109.333 998.5,109.5 1156.5,110C 1178.92,113.925 1193.25,126.759 1199.5,148.5C 1199.5,426.833 1199.5,705.167 1199.5,983.5C 1193.9,1003.6 1180.9,1016.1 1160.5,1021C 1001.17,1021.5 841.834,1021.67 682.5,1021.5C 682.5,1007.83 682.5,994.167 682.5,980.5C 841.833,980.5 1001.17,980.5 1160.5,980.5C 1160.5,703.833 1160.5,427.167 1160.5,150.5C 1001.17,150.5 841.833,150.5 682.5,150.5C 682.5,136.833 682.5,123.167 682.5,109.5 Z"/></g>
<g><path style="opacity:1" fill="#fefefe" d="M 682.5,150.5 C 841.833,150.5 1001.17,150.5 1160.5,150.5C 1160.5,427.167 1160.5,703.833 1160.5,980.5C 1001.17,980.5 841.833,980.5 682.5,980.5C 682.5,955.167 682.5,929.833 682.5,904.5C 735.833,904.5 789.167,904.5 842.5,904.5C 843.498,870.004 843.832,835.337 843.5,800.5C 789.833,800.5 736.167,800.5 682.5,800.5C 682.5,787.5 682.5,774.5 682.5,761.5C 735.833,761.5 789.167,761.5 842.5,761.5C 843.498,727.004 843.832,692.337 843.5,657.5C 789.833,657.5 736.167,657.5 682.5,657.5C 682.5,644.167 682.5,630.833 682.5,617.5C 736.167,617.5 789.833,617.5 843.5,617.5C 843.5,583.167 843.5,548.833 843.5,514.5C 789.833,514.5 736.167,514.5 682.5,514.5C 682.5,501.167 682.5,487.833 682.5,474.5C 736.167,474.5 789.833,474.5 843.5,474.5C 843.5,439.833 843.5,405.167 843.5,370.5C 789.833,370.5 736.167,370.5 682.5,370.5C 682.5,358.167 682.5,345.833 682.5,333.5C 735.833,333.5 789.167,333.5 842.5,333.5C 843.498,299.004 843.832,264.337 843.5,229.5C 789.833,229.5 736.167,229.5 682.5,229.5C 682.5,203.167 682.5,176.833 682.5,150.5 Z"/></g>
<g><path style="opacity:1" fill="#93baa4" d="M 682.5,150.5 C 682.5,176.833 682.5,203.167 682.5,229.5C 736.167,229.5 789.833,229.5 843.5,229.5C 843.832,264.337 843.498,299.004 842.5,333.5C 842.5,299.167 842.5,264.833 842.5,230.5C 789.167,230.5 735.833,230.5 682.5,230.5C 681.167,203.833 681.167,177.167 682.5,150.5 Z"/></g>
<g><path style="opacity:1" fill="#1f7144" d="M 682.5,230.5 C 735.833,230.5 789.167,230.5 842.5,230.5C 842.5,264.833 842.5,299.167 842.5,333.5C 789.167,333.5 735.833,333.5 682.5,333.5C 682.5,299.167 682.5,264.833 682.5,230.5 Z"/></g>
<g><path style="opacity:1" fill="#468863" d="M 884.5,230.5 C 884.5,264.5 884.5,298.5 884.5,332.5C 947.833,332.5 1011.17,332.5 1074.5,332.5C 1074.5,298.5 1074.5,264.5 1074.5,230.5C 1075.5,264.663 1075.83,298.996 1075.5,333.5C 1011.5,333.5 947.5,333.5 883.5,333.5C 883.168,298.996 883.502,264.663 884.5,230.5 Z"/></g>
<g><path style="opacity:1" fill="#1f7143" d="M 884.5,230.5 C 947.833,230.5 1011.17,230.5 1074.5,230.5C 1074.5,264.5 1074.5,298.5 1074.5,332.5C 1011.17,332.5 947.833,332.5 884.5,332.5C 884.5,298.5 884.5,264.5 884.5,230.5 Z"/></g>
<g><path style="opacity:1" fill="#fefefe" d="M 370.5,750.5 C 353.242,709.231 336.075,667.898 319,626.5C 318.118,623.211 317.452,619.877 317,616.5C 315.603,623.023 313.603,629.357 311,635.5C 293.058,676.384 275.391,717.384 258,758.5C 257.583,759.756 256.75,760.423 255.5,760.5C 229.496,758.843 203.496,757.009 177.5,755C 208.567,693.034 239.233,630.867 269.5,568.5C 242.167,506.5 214.833,444.5 187.5,382.5C 212.24,379.693 236.907,377.693 261.5,376.5C 263.199,376.34 264.866,376.506 266.5,377C 284.784,422.515 302.284,468.349 319,514.5C 320.178,510.12 321.512,505.787 323,501.5C 339.123,464.924 354.957,428.257 370.5,391.5C 373.893,384.321 376.893,376.987 379.5,369.5C 406.687,368.271 433.853,366.604 461,364.5C 462.5,364.833 464,365.167 465.5,365.5C 430.976,431.714 397.643,498.548 365.5,566C 400.59,634.68 435.257,703.513 469.5,772.5C 438.764,771.514 408.097,769.514 377.5,766.5C 375.152,761.141 372.819,755.807 370.5,750.5 Z"/></g>
<g><path style="opacity:1" fill="#1f7143" d="M 682.5,371.5 C 735.833,371.5 789.167,371.5 842.5,371.5C 842.5,405.5 842.5,439.5 842.5,473.5C 789.167,473.5 735.833,473.5 682.5,473.5C 682.5,439.5 682.5,405.5 682.5,371.5 Z"/></g>
<g><path style="opacity:1" fill="#1f7144" d="M 883.5,371.5 C 947.167,371.5 1010.83,371.5 1074.5,371.5C 1074.5,405.833 1074.5,440.167 1074.5,474.5C 1010.83,474.5 947.167,474.5 883.5,474.5C 883.5,440.167 883.5,405.833 883.5,371.5 Z"/></g>
<g><path style="opacity:1" fill="#75a78b" d="M 682.5,371.5 C 682.5,371.167 682.5,370.833 682.5,370.5C 736.167,370.5 789.833,370.5 843.5,370.5C 843.5,405.167 843.5,439.833 843.5,474.5C 789.833,474.5 736.167,474.5 682.5,474.5C 682.5,474.167 682.5,473.833 682.5,473.5C 735.833,473.5 789.167,473.5 842.5,473.5C 842.5,439.5 842.5,405.5 842.5,371.5C 789.167,371.5 735.833,371.5 682.5,371.5 Z"/></g>
<g><path style="opacity:1" fill="#1f7144" d="M 682.5,514.5 C 736.167,514.5 789.833,514.5 843.5,514.5C 843.5,548.833 843.5,583.167 843.5,617.5C 789.833,617.5 736.167,617.5 682.5,617.5C 682.5,583.167 682.5,548.833 682.5,514.5 Z"/></g>
<g><path style="opacity:1" fill="#1f7144" d="M 883.5,514.5 C 947.167,514.5 1010.83,514.5 1074.5,514.5C 1074.5,548.833 1074.5,583.167 1074.5,617.5C 1010.83,617.5 947.167,617.5 883.5,617.5C 883.5,583.167 883.5,548.833 883.5,514.5 Z"/></g>
<g><path style="opacity:1" fill="#1f7144" d="M 370.5,750.5 C 369.501,860.332 369.167,970.332 369.5,1080.5C 331.268,1074.79 293.268,1068.46 255.5,1061.5C 255.5,961.167 255.5,860.833 255.5,760.5C 256.75,760.423 257.583,759.756 258,758.5C 275.391,717.384 293.058,676.384 311,635.5C 313.603,629.357 315.603,623.023 317,616.5C 317.452,619.877 318.118,623.211 319,626.5C 336.075,667.898 353.242,709.231 370.5,750.5 Z"/></g>
<g><path style="opacity:1" fill="#87b39b" d="M 682.5,658.5 C 682.5,658.167 682.5,657.833 682.5,657.5C 736.167,657.5 789.833,657.5 843.5,657.5C 843.832,692.337 843.498,727.004 842.5,761.5C 842.5,727.167 842.5,692.833 842.5,658.5C 789.167,658.5 735.833,658.5 682.5,658.5 Z"/></g>
<g><path style="opacity:1" fill="#1f7144" d="M 682.5,658.5 C 735.833,658.5 789.167,658.5 842.5,658.5C 842.5,692.833 842.5,727.167 842.5,761.5C 789.167,761.5 735.833,761.5 682.5,761.5C 682.5,727.167 682.5,692.833 682.5,658.5 Z"/></g>
<g><path style="opacity:1" fill="#76a78c" d="M 883.5,659.5 C 947.331,658.501 1011.33,658.168 1075.5,658.5C 1075.5,693.167 1075.5,727.833 1075.5,762.5C 1011.33,762.832 947.331,762.499 883.5,761.5C 947.167,761.5 1010.83,761.5 1074.5,761.5C 1074.5,727.5 1074.5,693.5 1074.5,659.5C 1010.83,659.5 947.167,659.5 883.5,659.5 Z"/></g>
<g><path style="opacity:1" fill="#1f7144" d="M 883.5,659.5 C 947.167,659.5 1010.83,659.5 1074.5,659.5C 1074.5,693.5 1074.5,727.5 1074.5,761.5C 1010.83,761.5 947.167,761.5 883.5,761.5C 883.5,727.5 883.5,693.5 883.5,659.5 Z"/></g>
<g><path style="opacity:1" fill="#98bda9" d="M 682.5,761.5 C 682.5,774.5 682.5,787.5 682.5,800.5C 736.167,800.5 789.833,800.5 843.5,800.5C 843.832,835.337 843.498,870.004 842.5,904.5C 842.5,870.167 842.5,835.833 842.5,801.5C 789.167,801.5 735.833,801.5 682.5,801.5C 681.167,788.167 681.167,774.833 682.5,761.5 Z"/></g>
<g><path style="opacity:1" fill="#1f7144" d="M 682.5,801.5 C 735.833,801.5 789.167,801.5 842.5,801.5C 842.5,835.833 842.5,870.167 842.5,904.5C 789.167,904.5 735.833,904.5 682.5,904.5C 682.5,870.167 682.5,835.833 682.5,801.5 Z"/></g>
<g><path style="opacity:1" fill="#458761" d="M 884.5,801.5 C 884.5,835.5 884.5,869.5 884.5,903.5C 947.833,903.5 1011.17,903.5 1074.5,903.5C 1074.5,869.5 1074.5,835.5 1074.5,801.5C 1075.5,835.663 1075.83,869.996 1075.5,904.5C 1011.5,904.5 947.5,904.5 883.5,904.5C 883.168,869.996 883.502,835.663 884.5,801.5 Z"/></g>
<g><path style="opacity:1" fill="#1f7143" d="M 884.5,801.5 C 947.833,801.5 1011.17,801.5 1074.5,801.5C 1074.5,835.5 1074.5,869.5 1074.5,903.5C 1011.17,903.5 947.833,903.5 884.5,903.5C 884.5,869.5 884.5,835.5 884.5,801.5 Z"/></g>
</svg>
